 <svg  version="1.0" xmlns="http://www.w3.org/2000/svg"  width="1584.000000pt" height="1584.000000pt" viewBox="0 0 1584.000000 1584.000000"  preserveAspectRatio="xMidYMid meet">  <g transform="translate(0.000000,1584.000000) scale(0.100000,-0.100000)" fill="#03c700" stroke="none"> <path d="M5975 15774 c-60 -8 -135 -19 -165 -26 -30 -6 -86 -14 -125 -18 -85 -9 -198 -27 -285 -45 -36 -8 -92 -16 -125 -20 -33 -3 -76 -10 -95 -15 -19 -5 -55 -10 -80 -11 -25 -1 -55 -8 -67 -15 -12 -8 -30 -14 -40 -14 -10 0 -31 -7 -47 -15 -15 -8 -37 -15 -47 -15 -10 0 -33 -6 -51 -14 -18 -8 -89 -31 -158 -51 -69 -20 -133 -41 -142 -46 -10 -5 -26 -9 -35 -9 -10 0 -31 -7 -47 -15 -15 -8 -35 -15 -43 -15 -8 0 -27 -6 -41 -13 -15 -8 -43 -21 -62 -29 -19 -8 -51 -22 -70 -30 -19 -9 -48 -19 -65 -23 -16 -4 -37 -12 -45 -19 -8 -7 -35 -19 -60 -26 -25 -8 -60 -25 -79 -37 -19 -13 -86 -49 -150 -80 -64 -32 -117 -61 -119 -65 -2 -5 -8 -8 -13 -8 -5 0 -38 -20 -75 -45 -36 -25 -67 -45 -69 -45 -2 0 -24 -13 -48 -30 -25 -16 -50 -30 -55 -30 -6 0 -15 -6 -19 -13 -11 -18 -89 -77 -101 -77 -6 0 -15 -6 -19 -14 -4 -7 -28 -28 -53 -45 -25 -17 -74 -55 -110 -86 -36 -30 -94 -79 -130 -108 -62 -51 -196 -184 -275 -272 -58 -65 -208 -265 -203 -270 5 -6 58 17 228 97 58 27 132 61 165 74 33 14 69 29 80 34 11 4 32 11 48 14 15 4 27 11 27 16 0 6 9 10 21 10 11 0 33 6 47 14 15 8 56 24 92 37 36 12 70 25 75 29 6 4 21 10 35 13 14 3 57 17 95 31 39 14 81 26 93 26 13 0 38 6 55 13 45 19 97 37 132 47 17 4 41 12 55 17 66 27 134 44 310 79 41 8 107 22 145 30 146 31 222 45 287 54 37 5 76 13 87 19 11 6 43 11 71 11 29 0 82 6 119 14 108 24 305 37 641 43 420 7 608 -9 984 -87 115 -24 417 -135 559 -206 178 -88 416 -244 563 -369 77 -66 264 -252 339 -339 83 -95 263 -339 312 -422 22 -38 63 -107 91 -154 27 -47 77 -139 109 -205 33 -66 65 -129 71 -140 6 -11 18 -36 26 -55 8 -19 25 -60 38 -90 14 -30 31 -71 38 -90 7 -19 20 -44 27 -55 7 -11 13 -31 13 -46 0 -15 7 -32 15 -39 8 -7 15 -24 15 -39 0 -14 7 -35 15 -45 8 -11 15 -29 15 -40 0 -12 7 -30 15 -40 8 -11 15 -29 15 -41 0 -12 4 -25 9 -30 6 -6 14 -28 20 -50 31 -123 63 -246 76 -286 8 -26 15 -57 15 -70 1 -13 7 -35 15 -49 8 -14 15 -41 15 -60 0 -19 7 -44 15 -54 8 -11 15 -37 15 -59 0 -21 5 -48 12 -60 11 -22 20 -78 38 -242 6 -49 15 -124 20 -165 6 -41 14 -110 18 -152 4 -42 13 -83 20 -90 6 -6 12 -29 12 -49 0 -20 7 -42 15 -49 8 -7 15 -27 15 -46 0 -18 6 -48 14 -66 8 -18 22 -60 31 -93 22 -75 73 -225 85 -246 4 -9 34 -65 66 -125 102 -193 178 -298 296 -409 177 -166 318 -258 478 -311 41 -13 84 -29 95 -34 28 -14 104 -30 220 -45 98 -13 223 -6 265 15 9 4 31 11 50 14 55 11 218 95 290 149 93 71 147 122 215 207 67 83 85 113 151 247 25 51 50 95 55 99 5 3 9 18 9 33 0 15 5 32 11 38 6 6 15 29 20 50 4 21 17 81 29 133 11 52 25 133 30 179 6 47 15 101 20 120 15 53 13 447 -2 474 -7 12 -15 63 -20 112 -16 192 -55 433 -76 472 -7 12 -12 35 -12 50 0 16 -7 38 -15 49 -8 10 -15 30 -15 44 0 14 -7 34 -15 44 -8 11 -15 32 -15 46 0 14 -4 30 -8 36 -5 5 -26 63 -46 129 -21 66 -44 132 -52 147 -8 14 -14 33 -14 41 0 8 -7 20 -15 27 -8 7 -15 23 -15 35 0 12 -7 28 -15 35 -8 7 -15 16 -15 21 0 5 -13 38 -30 72 -16 35 -30 71 -30 79 0 9 -7 21 -15 28 -8 7 -15 20 -15 30 0 10 -7 23 -15 30 -8 7 -15 16 -15 20 0 5 -19 41 -43 82 -23 40 -51 93 -62 118 -10 25 -25 52 -32 61 -7 8 -13 18 -13 21 0 3 -17 32 -39 64 -21 33 -50 79 -63 104 -14 25 -35 61 -47 80 -11 19 -24 42 -28 50 -3 8 -25 40 -48 70 -23 30 -52 73 -64 95 -28 51 -49 84 -83 126 -15 19 -61 79 -102 134 -41 55 -93 123 -115 150 -22 28 -54 70 -72 95 -17 25 -55 68 -83 95 -29 28 -70 72 -91 99 -22 28 -65 75 -95 106 -30 30 -77 79 -103 108 -27 29 -65 64 -85 79 -20 15 -57 48 -83 73 -25 25 -69 65 -98 90 -30 25 -81 69 -115 97 -33 29 -66 53 -71 53 -6 0 -33 20 -60 45 -28 24 -75 62 -105 82 -30 21 -57 41 -60 44 -3 3 -19 14 -37 23 -45 23 -118 73 -133 91 -7 8 -17 15 -22 15 -6 0 -23 9 -40 21 -16 12 -59 36 -96 54 -37 18 -89 48 -117 66 -54 37 -165 93 -205 104 -39 11 -208 93 -215 105 -3 5 -18 10 -33 10 -15 0 -36 6 -47 13 -11 8 -74 31 -140 52 -66 21 -124 41 -130 44 -5 4 -37 15 -70 25 -33 10 -78 24 -100 31 -62 20 -299 72 -410 90 -55 9 -125 23 -155 31 -104 26 -306 37 -715 40 -305 1 -438 -2 -520 -12z"/> <path d="M4835 13919 c-38 -4 -137 -11 -220 -15 -93 -4 -160 -12 -177 -20 -15 -8 -47 -14 -71 -14 -25 0 -64 -7 -87 -15 -23 -8 -59 -15 -80 -15 -21 0 -51 -7 -66 -15 -16 -8 -39 -15 -51 -15 -23 0 -74 -11 -178 -38 -33 -8 -78 -19 -100 -23 -46 -8 -97 -25 -138 -45 -16 -8 -35 -14 -43 -14 -8 0 -44 -13 -79 -30 -35 -16 -67 -30 -71 -30 -9 0 -165 -59 -184 -70 -16 -9 -245 -123 -320 -159 -25 -12 -58 -31 -75 -41 -16 -10 -50 -29 -75 -42 -25 -13 -76 -41 -115 -64 -38 -22 -77 -43 -85 -47 -8 -4 -27 -15 -41 -25 -15 -9 -78 -50 -140 -90 -63 -40 -154 -102 -204 -137 -49 -36 -99 -69 -110 -74 -11 -5 -33 -21 -48 -35 -16 -14 -74 -61 -130 -103 -166 -125 -290 -236 -502 -448 -194 -193 -347 -361 -410 -449 -16 -23 -57 -75 -90 -115 -53 -64 -110 -147 -132 -191 -4 -8 -32 -48 -62 -90 -31 -41 -74 -109 -95 -150 -22 -41 -55 -100 -74 -130 -44 -68 -85 -146 -118 -225 -14 -33 -43 -96 -64 -140 -51 -106 -100 -230 -100 -250 0 -9 -7 -33 -16 -53 -9 -21 -22 -52 -30 -70 -8 -18 -14 -40 -14 -48 0 -9 -6 -28 -14 -42 -19 -38 -37 -91 -46 -137 -5 -22 -19 -83 -32 -135 -14 -52 -32 -133 -42 -180 -9 -47 -22 -105 -28 -130 -6 -25 -15 -74 -19 -110 -4 -36 -10 -74 -14 -85 -25 -85 -55 -837 -35 -875 6 -12 14 -85 17 -163 3 -78 11 -167 19 -198 8 -31 14 -88 14 -125 0 -38 5 -87 11 -109 6 -22 14 -65 19 -95 4 -30 13 -75 18 -100 6 -25 18 -88 27 -140 15 -94 28 -168 46 -265 5 -27 13 -59 18 -70 10 -24 29 -95 41 -150 4 -22 18 -65 30 -95 21 -54 41 -116 62 -195 6 -22 15 -44 19 -49 5 -6 9 -19 9 -30 0 -11 13 -47 29 -80 16 -34 36 -79 46 -101 9 -22 23 -53 31 -68 8 -16 14 -35 14 -42 0 -12 40 -102 76 -170 17 -31 76 -140 93 -172 6 -10 18 -36 27 -58 10 -22 30 -56 44 -75 29 -39 150 -237 151 -248 0 -4 16 -27 35 -52 18 -25 45 -61 58 -80 13 -19 31 -41 40 -49 9 -7 16 -18 16 -23 0 -13 54 -82 107 -137 24 -24 43 -49 43 -54 0 -5 40 -49 90 -98 49 -49 90 -92 90 -97 0 -5 14 -19 32 -32 17 -13 66 -56 107 -95 42 -39 108 -93 146 -120 39 -26 72 -51 75 -54 6 -8 58 -41 63 -41 2 0 -15 39 -38 87 -40 81 -149 309 -181 377 -8 16 -14 33 -14 39 0 9 -14 43 -55 132 -13 28 -35 79 -49 115 -15 36 -31 73 -36 82 -11 20 -28 82 -39 148 -5 24 -14 46 -20 48 -6 2 -11 11 -11 20 0 10 -7 30 -15 46 -8 15 -15 36 -15 46 0 10 -7 31 -14 47 -19 36 -75 220 -83 270 -3 21 -9 43 -13 48 -4 6 -10 32 -14 59 -3 27 -10 54 -15 60 -4 6 -12 28 -15 50 -4 21 -11 46 -16 55 -4 9 -15 52 -24 96 -9 44 -22 100 -28 125 -6 25 -14 70 -19 100 -4 30 -13 89 -19 130 -6 41 -16 118 -20 170 -5 52 -13 127 -18 165 -12 96 -14 648 -2 765 5 52 14 129 20 170 6 41 16 107 21 145 23 156 102 441 184 660 47 128 172 367 258 495 127 189 211 296 333 427 64 67 244 228 320 283 32 25 75 59 95 76 20 17 70 53 110 79 41 26 101 66 134 88 84 56 435 235 584 297 68 28 147 63 175 76 75 37 208 82 316 109 52 12 106 27 120 32 50 20 96 35 130 43 19 4 49 13 65 18 128 45 334 89 470 101 44 4 93 13 108 19 16 7 57 12 91 12 35 0 80 7 99 15 20 8 57 15 82 15 26 0 56 5 67 11 11 6 44 15 72 19 28 5 71 14 96 20 25 7 61 16 80 20 19 4 64 15 100 25 36 9 79 19 97 22 18 3 38 11 44 19 6 8 19 14 29 14 10 0 45 14 78 30 34 17 65 30 71 30 9 0 184 87 226 113 44 28 245 179 245 186 0 4 26 28 57 55 31 26 71 69 88 94 17 26 55 82 85 125 30 43 58 83 62 90 34 57 117 289 139 387 6 30 14 110 16 177 4 112 2 128 -23 200 -15 43 -37 99 -50 125 -13 26 -24 52 -24 58 0 20 -54 123 -77 149 -13 13 -23 28 -23 32 0 5 -17 26 -37 47 -21 21 -51 56 -68 76 -25 32 -89 79 -224 168 -52 34 -148 76 -236 103 -49 15 -94 31 -99 36 -6 5 -21 9 -35 9 -15 1 -37 7 -51 15 -14 8 -50 14 -81 15 -38 0 -61 5 -69 15 -10 12 -37 15 -120 15 -91 0 -142 5 -230 23 -8 2 -46 0 -85 -4z"/> <path d="M11410 13415 c0 -2 10 -21 21 -42 12 -21 39 -72 61 -113 21 -41 43 -82 48 -90 5 -8 30 -60 55 -115 25 -55 68 -145 94 -200 27 -55 56 -122 65 -148 15 -46 29 -77 117 -265 22 -46 39 -86 39 -90 0 -4 6 -18 13 -32 8 -14 17 -40 20 -58 4 -18 18 -56 32 -86 14 -29 25 -57 25 -63 0 -6 13 -37 30 -69 16 -32 30 -66 30 -74 0 -8 14 -53 30 -100 17 -47 30 -94 30 -106 0 -11 7 -29 15 -40 8 -10 15 -27 15 -37 0 -11 6 -33 13 -50 27 -63 75 -224 96 -322 12 -55 26 -113 31 -130 5 -16 12 -56 16 -88 4 -32 11 -60 15 -63 5 -3 9 -22 9 -43 0 -21 6 -61 14 -87 17 -60 35 -164 46 -264 4 -41 13 -102 20 -135 16 -77 17 -574 2 -710 -20 -184 -32 -270 -41 -305 -5 -19 -17 -64 -26 -100 -9 -36 -22 -87 -30 -115 -7 -27 -21 -79 -31 -115 -38 -146 -181 -464 -268 -599 -23 -36 -53 -84 -66 -106 -13 -22 -27 -42 -31 -45 -3 -3 -17 -21 -30 -40 -84 -123 -429 -489 -534 -566 -22 -16 -63 -47 -90 -69 -190 -153 -672 -423 -935 -525 -133 -52 -153 -60 -182 -76 -14 -7 -38 -14 -51 -14 -14 0 -28 -4 -31 -9 -6 -10 -158 -59 -281 -91 -44 -12 -93 -26 -110 -32 -16 -5 -49 -13 -73 -18 -24 -4 -48 -12 -54 -18 -7 -7 -27 -12 -46 -12 -18 0 -43 -5 -55 -12 -12 -6 -40 -15 -62 -19 -22 -5 -69 -15 -105 -24 -36 -9 -114 -23 -175 -31 -60 -8 -135 -19 -166 -25 -30 -5 -80 -9 -110 -9 -30 -1 -72 -7 -94 -15 -22 -8 -58 -15 -80 -15 -22 0 -49 -7 -59 -15 -11 -8 -39 -15 -63 -15 -24 0 -56 -6 -71 -13 -15 -8 -63 -22 -107 -32 -44 -10 -99 -26 -123 -37 -24 -10 -52 -18 -62 -18 -11 0 -40 -11 -66 -25 -26 -14 -53 -25 -61 -25 -12 0 -115 -52 -243 -123 -87 -48 -249 -173 -321 -247 -37 -38 -94 -106 -127 -152 -34 -46 -68 -91 -77 -100 -8 -10 -15 -20 -15 -23 0 -2 -15 -37 -34 -77 -18 -40 -41 -95 -51 -123 -10 -27 -22 -54 -26 -60 -3 -5 -10 -26 -14 -45 -4 -19 -10 -39 -14 -45 -14 -23 -33 -148 -38 -253 -4 -89 -1 -121 11 -153 9 -22 16 -51 16 -64 0 -14 4 -33 10 -43 17 -31 70 -151 70 -159 0 -14 74 -127 115 -177 87 -105 159 -165 295 -246 129 -78 182 -105 220 -113 14 -3 63 -17 110 -31 47 -14 96 -26 110 -26 14 0 38 -7 54 -15 15 -8 54 -15 85 -15 31 0 69 -7 85 -15 41 -22 536 -22 616 0 30 8 87 15 125 15 39 0 76 5 82 11 6 6 40 15 75 19 57 7 205 34 331 60 26 5 56 14 66 20 11 5 30 10 43 10 13 0 32 7 42 15 11 8 34 15 51 15 17 0 35 4 40 9 6 4 46 20 90 34 44 14 109 37 144 51 36 14 72 26 81 26 10 0 39 12 66 26 74 40 148 77 264 132 153 73 421 218 475 256 25 18 57 37 172 104 25 15 247 169 282 195 20 16 79 61 132 100 53 40 129 99 169 132 40 33 97 79 127 103 29 23 53 47 53 52 0 5 19 22 43 39 78 54 398 383 517 531 47 58 65 80 90 108 34 39 166 219 227 310 36 53 78 113 94 133 16 20 29 41 29 47 0 12 97 190 121 221 18 23 79 145 79 158 0 3 12 31 26 62 71 151 102 219 113 251 60 164 135 381 140 410 4 19 13 45 19 57 7 12 12 32 12 46 0 13 6 43 14 68 20 64 44 173 56 254 6 39 17 104 26 145 34 166 46 316 48 565 1 267 -19 716 -36 768 -5 18 -13 70 -18 117 -4 47 -13 112 -20 145 -30 159 -41 226 -69 425 -6 41 -15 84 -19 95 -18 41 -42 123 -42 141 0 11 -7 32 -15 48 -8 15 -15 37 -15 47 0 10 -6 36 -14 56 -8 21 -24 76 -36 123 -12 47 -26 93 -31 102 -5 10 -9 28 -9 40 0 13 -7 36 -15 52 -8 15 -15 34 -15 41 0 7 -11 35 -24 62 -44 89 -74 158 -86 198 -7 22 -18 53 -26 68 -8 16 -14 34 -14 40 0 6 -6 18 -14 26 -18 21 -136 251 -136 266 0 7 -17 36 -38 66 -21 30 -65 99 -97 154 -55 95 -108 177 -130 201 -5 6 -19 27 -30 47 -11 20 -23 37 -27 37 -5 0 -8 7 -8 15 0 7 -6 18 -13 22 -7 4 -21 22 -31 38 -11 17 -39 50 -63 74 -24 24 -43 48 -43 53 0 4 -31 41 -68 81 -38 39 -93 99 -122 132 -30 33 -57 62 -61 65 -4 3 -46 41 -94 85 -48 44 -95 84 -104 89 -9 5 -51 36 -93 68 -42 32 -82 58 -87 58 -9 0 -119 77 -236 165 -19 15 -35 19 -35 10z"/> <path d="M2800 8714 c-115 -23 -163 -39 -255 -84 -49 -25 -94 -49 -100 -53 -5 -4 -26 -19 -45 -33 -81 -58 -270 -262 -270 -292 0 -5 -6 -15 -14 -21 -15 -13 -90 -162 -120 -241 -10 -25 -24 -60 -32 -78 -8 -18 -14 -40 -14 -48 0 -9 -6 -28 -14 -42 -14 -29 -37 -110 -42 -152 -31 -276 -43 -511 -32 -600 8 -62 28 -297 33 -379 2 -29 8 -58 14 -64 6 -6 11 -35 11 -65 0 -34 5 -59 15 -68 8 -9 15 -30 15 -47 0 -18 7 -41 15 -51 8 -11 15 -34 15 -52 0 -17 7 -45 15 -60 8 -16 15 -41 15 -56 0 -15 4 -29 8 -32 5 -3 14 -35 22 -71 8 -36 17 -68 22 -71 4 -3 8 -20 8 -38 0 -19 7 -39 15 -46 8 -7 15 -20 15 -30 0 -9 14 -42 30 -73 17 -31 30 -62 30 -68 0 -7 14 -41 30 -77 17 -35 38 -85 46 -110 9 -26 22 -54 30 -63 8 -8 14 -23 14 -32 0 -9 4 -19 10 -22 5 -3 28 -44 50 -90 22 -46 45 -87 50 -90 6 -3 10 -15 10 -25 0 -10 6 -25 13 -32 7 -7 21 -32 31 -56 11 -23 25 -47 33 -53 7 -6 13 -20 13 -30 0 -11 4 -19 9 -19 5 0 16 -12 24 -27 8 -16 30 -57 48 -93 19 -36 52 -90 74 -120 44 -61 44 -61 111 -172 25 -43 49 -78 53 -78 4 0 17 -17 29 -38 11 -21 31 -47 42 -57 12 -11 27 -33 34 -50 8 -16 24 -42 37 -56 52 -58 109 -128 109 -135 0 -9 123 -156 220 -262 91 -100 399 -406 492 -488 88 -78 229 -191 287 -230 25 -17 55 -42 66 -54 11 -12 29 -26 40 -32 37 -17 137 -81 185 -118 44 -34 103 -69 205 -121 44 -22 105 -58 135 -79 30 -21 82 -48 115 -59 75 -24 212 -90 246 -118 8 -6 28 -13 44 -16 24 -5 145 -45 235 -79 8 -3 56 -20 105 -37 50 -17 104 -36 120 -42 17 -6 48 -15 70 -19 22 -5 81 -18 130 -30 94 -22 222 -46 315 -60 30 -4 66 -13 80 -18 27 -12 189 -28 435 -42 196 -12 674 -2 792 16 51 8 115 14 143 14 28 0 76 6 108 14 31 8 95 20 142 26 47 5 114 14 150 19 36 4 81 13 100 19 19 6 71 16 115 22 149 20 192 28 213 39 11 6 29 11 39 11 10 0 31 7 47 15 15 8 37 15 47 15 10 0 36 6 56 14 45 16 213 68 298 91 33 9 73 23 88 31 16 8 35 14 42 14 7 0 39 13 71 29 89 43 144 67 201 85 29 10 55 22 58 27 4 5 13 9 22 9 9 0 24 6 32 14 9 8 81 47 161 88 80 41 168 90 197 109 29 19 98 64 155 101 57 37 121 83 143 102 22 20 43 36 47 36 9 0 172 124 223 170 48 42 209 194 247 233 16 15 28 31 28 36 0 5 31 39 68 77 37 38 90 103 117 144 28 41 55 80 61 85 6 6 33 44 60 85 27 41 74 110 106 153 62 83 58 97 -17 52 -77 -46 -611 -305 -629 -305 -10 0 -57 -21 -161 -70 -44 -21 -105 -48 -135 -60 -30 -12 -70 -28 -88 -36 -18 -8 -37 -14 -43 -14 -12 0 -66 -22 -112 -46 -16 -8 -36 -14 -44 -14 -9 0 -30 -8 -47 -19 -17 -10 -74 -33 -126 -51 -52 -17 -103 -36 -112 -41 -10 -5 -30 -9 -46 -9 -15 0 -36 -6 -47 -14 -11 -7 -47 -21 -80 -30 -33 -10 -75 -24 -93 -32 -18 -8 -39 -14 -47 -14 -8 0 -29 -6 -47 -14 -18 -8 -78 -24 -133 -36 -140 -31 -164 -36 -215 -50 -25 -6 -69 -16 -99 -21 -29 -5 -62 -14 -72 -19 -10 -6 -33 -10 -52 -10 -19 0 -57 -6 -83 -14 -148 -43 -363 -61 -709 -60 -296 0 -324 2 -610 44 -95 14 -245 51 -320 79 -11 5 -84 29 -163 55 -358 119 -770 383 -1023 658 -57 62 -130 140 -162 174 -32 34 -77 89 -100 122 -23 33 -58 81 -77 106 -113 151 -354 577 -410 726 -7 19 -37 91 -66 160 -28 69 -71 181 -93 250 -23 69 -46 134 -51 145 -5 11 -25 74 -45 140 -20 66 -41 131 -47 145 -5 14 -14 50 -19 80 -5 30 -16 87 -25 125 -8 39 -22 99 -29 135 -8 36 -21 94 -30 130 -26 103 -44 189 -59 275 -54 310 -66 384 -66 415 0 19 -7 44 -15 54 -8 11 -15 39 -15 62 0 24 -4 45 -9 48 -4 3 -11 20 -15 37 -8 40 -89 246 -132 334 -67 137 -180 304 -282 416 -116 126 -371 299 -480 325 -15 4 -31 10 -37 14 -12 8 -100 37 -174 56 -58 16 -214 34 -271 33 -19 -1 -64 -7 -100 -15z"/> </g> </svg> 