<svg version="1.1" id="Layer_1" xmlns="http://www.w3.org/2000/svg" xmlns:xlink="http://www.w3.org/1999/xlink" x="0px" y="0px"
	 viewBox="0 0 349.7 107.2" style="enable-background:new 0 0 349.7 107.2;" xml:space="preserve">
<style type="text/css">
	.st0{fill:#76BC21;}
	.st1{fill:none;stroke:#76BC21;stroke-width:3.5824;stroke-miterlimit:10;}
	.st2{fill:url(#SVGID_1_);}
	.st3{fill:url(#SVGID_2_);}
	.st4{fill:url(#SVGID_3_);}
	.st5{fill:url(#SVGID_4_);}
</style>
<g>
	<g>
		<path class="st0" d="M181.6,39.6c-3.9-4.1-7.5-5.3-11.2-5.3c-11,0-18.3,8.4-18.3,19c0,11.3,7.3,19.8,18.3,19.8
			c4.3,0,8.4-2,11.9-6.5l7.8,5.6c-4.8,6.6-12,9.5-19.8,9.5c-16.4,0-28.1-11.1-28.1-27.7c0-17,11.7-28.2,28.1-28.2
			c7.2,0,13.4,2.3,18.6,8.4L181.6,39.6z"/>
		<path class="st0" d="M213.7,27.1h8.2l22.9,53.2H234l-5-12.2H206l-4.8,12.2h-10.6L213.7,27.1z M225.8,60l-8.2-21.6L209.2,60H225.8z
			"/>
		<path class="st0" d="M240,27.1h10.9l14.5,40.2l14.9-40.2h10.2L269,80.3h-8.2L240,27.1z"/>
		<path class="st0" d="M321.4,25.8c16.6-0.3,28.3,10.8,28.3,27.9c0,16.6-11.7,27.7-28.3,28c-16.4,0-28.1-11.1-28.1-27.7
			C293.4,36.9,305.1,25.8,321.4,25.8z M321.5,73.1c11,0,18.3-8.4,18.3-19.8c0-10.6-7.3-19-18.3-19c-11,0-18.3,8.4-18.3,19
			C303.3,64.7,310.6,73.1,321.5,73.1z"/>
	</g>
	<line class="st1" x1="118.7" y1="107.3" x2="118.7" y2="0"/>
	<g>
		
			<linearGradient id="SVGID_1_" gradientUnits="userSpaceOnUse" x1="1811.4409" y1="27.721" x2="1763.7235" y2="27.721" gradientTransform="matrix(-1 0 0 1 1827.515 0)">
			<stop  offset="0.5406" style="stop-color:#76BC43"/>
			<stop  offset="0.5777" style="stop-color:#70B340"/>
			<stop  offset="0.6838" style="stop-color:#64A33A"/>
			<stop  offset="0.7901" style="stop-color:#5C9835"/>
			<stop  offset="0.8957" style="stop-color:#569032"/>
			<stop  offset="1" style="stop-color:#548E31"/>
		</linearGradient>
		<path class="st2" d="M76.8,51.2c-1.5,0-9.2-0.6-10.8-12.2C64.5,28.9,59.4,12,41.8,12c-6,0-13.8,1.1-21.8,4.9l-2,1l0,0l1.3-1.8
			c0.1-0.1,2.2-3,6.7-6c4.2-2.7,11.3-5.8,21.7-5.8l0.6,0c21,0.3,35.1,20.4,35.9,34.8c0.2,4.3-0.6,7.5-2.6,9.7
			c-2,2.2-4.4,2.4-4.7,2.4C77.1,51.1,77,51.2,76.8,51.2z"/>
		
			<linearGradient id="SVGID_2_" gradientUnits="userSpaceOnUse" x1="-1565.2614" y1="30.8357" x2="-1613.9645" y2="30.8357" gradientTransform="matrix(1 0 0 -1 1648.7004 110.4925)">
			<stop  offset="0.5406" style="stop-color:#76BC43"/>
			<stop  offset="0.5777" style="stop-color:#70B340"/>
			<stop  offset="0.6838" style="stop-color:#64A33A"/>
			<stop  offset="0.7901" style="stop-color:#5C9835"/>
			<stop  offset="0.8957" style="stop-color:#569032"/>
			<stop  offset="1" style="stop-color:#548E31"/>
		</linearGradient>
		<path class="st3" d="M49.7,103.1c-21-0.3-35.1-20.4-35.9-34.8c-0.2-4.3,0.6-7.5,2.6-9.7c2-2.2,4.4-2.4,4.7-2.4c0,0,0.2,0,0.4,0
			c1.5,0,9.2,0.6,10.8,12.2c1.5,10.1,6.5,26.9,24.1,26.9c6,0,13.1-2,21-5.8l4.1-2l-2.6,3.8c-0.1,0.1-2.2,3-6.7,6
			c-4.2,2.7-11.3,5.8-21.7,5.8L49.7,103.1z"/>
		
			<linearGradient id="SVGID_3_" gradientUnits="userSpaceOnUse" x1="223.5729" y1="1292.2384" x2="174.8704" y2="1292.2384" gradientTransform="matrix(4.489700e-11 -1 -1 -4.489700e-11 1367.6056 242.7353)">
			<stop  offset="0.5406" style="stop-color:#76BC43"/>
			<stop  offset="0.5777" style="stop-color:#70B340"/>
			<stop  offset="0.6838" style="stop-color:#64A33A"/>
			<stop  offset="0.7901" style="stop-color:#5C9835"/>
			<stop  offset="0.8957" style="stop-color:#569032"/>
			<stop  offset="1" style="stop-color:#548E31"/>
		</linearGradient>
		<path class="st4" d="M62.6,88.9c-9.8,0-10.6-6.7-10.7-7.3h0c0-0.1-0.7-9.4,12.2-11.2c7-1,19.4-4.1,24.5-13.8
			c4.1-7.7,2.9-18.2-3.4-31.3l-2-4.1l3.8,2.6C87.1,23.9,99,32.5,98.8,53C98.5,74,78.4,88,64,88.9C63.6,88.9,63.1,88.9,62.6,88.9
			L62.6,88.9z"/>
		
			<linearGradient id="SVGID_4_" gradientUnits="userSpaceOnUse" x1="22.6062" y1="-1233.687" x2="-25.1106" y2="-1233.687" gradientTransform="matrix(-4.489700e-11 1 1 4.489700e-11 1257.113 63.9208)">
			<stop  offset="0.5406" style="stop-color:#76BC43"/>
			<stop  offset="0.5777" style="stop-color:#70B340"/>
			<stop  offset="0.6838" style="stop-color:#64A33A"/>
			<stop  offset="0.7901" style="stop-color:#5C9835"/>
			<stop  offset="0.8957" style="stop-color:#569032"/>
			<stop  offset="1" style="stop-color:#548E31"/>
		</linearGradient>
		<path class="st5" d="M11.8,83.3C11.7,83.2-0.3,74.6,0,54.1c0.3-21,20.4-35.1,34.8-35.9c0.5,0,0.9,0,1.4,0c9.8,0,10.6,6.7,10.7,7.3
			h0c0,0.1,0.7,9.4-12.2,11.2c-7,1-19.4,4.1-24.5,13.8c-4.1,7.7-3.8,19,2.5,32.1l1,2l0,0L11.8,83.3z"/>
		<path class="st0" d="M77,51.1c-9.6-0.6-10.9-10-11.4-14l0,0c0-0.4-0.1-0.7-0.1-0.9c-0.4-2.7-1.9-7.1-1.9-7.1L63.5,29l0-0.2
			C62.8,13.6,52,4.6,51.9,4.5l0,0c17.2,2.1,26,15.6,29.7,23.4c0.8,1.6,2,4.6,2.6,8.1c0.5,2.8,0.7,6.8-0.8,10.1
			c-1.2,2.6-3.2,4.2-6,4.9l-0.2,0L77,51.1z"/>
		<path class="st0" d="M46.2,102.9c-17.2-2.1-26-15.6-29.7-23.4c-0.8-1.6-2-4.6-2.6-8.1c-0.5-2.8-0.7-6.8,0.8-10.1
			c1.2-2.6,3.2-4.2,6-4.9l0.2,0l0.2,0c9.6,0.6,10.9,10,11.4,14l0,0.1c0,0.3,0.1,0.6,0.1,0.9c0.4,2.7,1.9,7.1,1.9,7.1l0.1,0.2l0,0.2
			C35.3,93.8,46.1,102.8,46.2,102.9L46.2,102.9z"/>
		<path class="st0" d="M62.9,89c-6,0-9.7-2.5-10.9-7.2l0-0.2l0-0.2c0.6-9.6,10-10.9,14-11.4c0.4,0,0.7-0.1,1-0.1
			c2.5-0.4,6.6-1.8,7.1-1.9l0.2-0.1l0.2,0c15.2-0.7,23.1-12.2,23.1-12.3l1.3-1.7l-0.2,2.5l0,0c-2.1,17.2-15.6,26-23.4,29.7
			C72.4,87.5,67.4,89,62.9,89z"/>
		<path class="st0" d="M0.2,50.7c2.1-17.2,15.6-26,23.4-29.7c2.7-1.4,7.7-2.9,12.3-2.9c6,0,9.7,2.5,10.9,7.2l0,0.2l0,0.2
			c-0.6,9.6-10,10.9-14,11.4c-0.4,0-0.7,0.1-1,0.1c-2.5,0.4-6.6,1.8-7.1,1.9l-0.2,0.1l-0.2,0C9.3,39.8,0.3,50.6,0.2,50.7L0.2,50.7z"
			/>
	</g>
</g>
</svg>
